<svg xmlns="http://www.w3.org/2000/svg" viewBox="0 0 28 28"><defs><style>.cls-1{fill:#0071bc;}</style></defs><g id="Layer_2" data-name="Layer 2"><g id="Layer_1-2" data-name="Layer 1"><path class="cls-1" d="M14,9.92A4.08,4.08,0,1,0,18.08,14,4.08,4.08,0,0,0,14,9.92Zm0,5.83A1.75,1.75,0,1,1,15.75,14,1.76,1.76,0,0,1,14,15.75Z"/><path class="cls-1" d="M26.83,12.83h-2.4a10.5,10.5,0,0,0-9.26-9.26V1.17a1.17,1.17,0,0,0-2.34,0v2.4a10.5,10.5,0,0,0-9.26,9.26H1.17a1.17,1.17,0,0,0,0,2.34h2.4a10.5,10.5,0,0,0,9.26,9.26v2.4a1.17,1.17,0,0,0,2.34,0v-2.4a10.5,10.5,0,0,0,9.26-9.26h2.4a1.17,1.17,0,1,0,0-2.34ZM14,22.17A8.17,8.17,0,1,1,22.17,14,8.19,8.19,0,0,1,14,22.17Z"/></g></g></svg>